<?xml version="1.0" encoding="UTF-8"?>
<svg width="64px" height="29px" viewBox="0 0 64 29" version="1.1" xmlns="http://www.w3.org/2000/svg" xmlns:xlink="http://www.w3.org/1999/xlink">
    <!-- Generator: Sketch 61.2 (89653) - https://sketch.com -->
    <title>handshake p책 bl책</title>
    <desc>Created with Sketch.</desc>
    <g id="Aa-registret" stroke="none" stroke-width="1" fill="none" fill-rule="evenodd">
        <g id="Hvis-bruker-ikke-allereden-er-innlogget" transform="translate(-609.000000, -335.000000)">
            <g id="handshake-p책-bl책" transform="translate(609.000000, 335.000000)">
                <g id="gjenstander-ovenfra-h-nd-handshake">
                    <polygon id="Path" fill="#654A28" fill-rule="nonzero" points="26.278716 20.4420741 42.7488395 12.7620741 46.4221235 20.6396049 29.952 28.3196049"></polygon>
                    <path d="M32.2631111,25.7809383 L30.8306173,24.5443951 L30.9230617,24.4069136 L35.2742716,27.379358 C36.0667654,27.8558025 37.1018272,27.5863704 37.5861728,26.7812346 C38.0483951,26.0108642 37.842963,25.0287407 37.1342222,24.5270123 L33.8473086,22.3683951 L34.0179753,22.0823704 L39.8854321,25.6434568 C40.6771358,26.1191111 41.7137778,25.8512593 42.1981235,25.0453333 C42.6824691,24.2386173 42.4327901,23.1972346 41.6410864,22.7223704 L35.7736296,19.161284 L35.9450864,18.8760494 L44.3891358,23.8396049 C45.1808395,24.3152593 46.2166914,24.0474074 46.7018272,23.2414815 C47.1861728,22.4339753 46.9364938,21.3933827 46.1447901,20.9185185 L32.486716,12.6546173 C32.3184198,12.5495309 32.082963,12.4017778 31.7795556,12.2097778 C31.7044938,11.9435062 31.8830617,11.9047901 32.6360494,11.8723951 C33.1496296,11.8502716 34.7749136,12.050963 35.7704691,12.1829136 L36.5756049,12.2935309 C36.5756049,12.2935309 40.4314074,12.6648889 40.6842469,11.0190617 C40.8857284,9.70587654 39.4326914,9.07140741 38.8432593,8.86992593 L38.5366914,8.77511111 C38.0452346,8.60760494 34.9511111,7.55990123 33.3835062,7.08424691 C31.2264691,6.42765432 28.6601481,6.37787654 26.7093333,6.43950617 C24.7608889,6.50508642 21.670716,7.00365432 21.3064691,7.60888889 L18.7101235,6.23881481 L12.9461728,15.8324938 L14.7279012,16.9031111 C15.0929383,17.1219753 15.1213827,17.7975309 15.1119012,18.124642 C14.969679,18.7757037 15.1893333,19.4299259 15.7179259,19.7475556 L30.509037,28.7020247 C31.1996049,29.1168395 32.1524938,28.8007901 32.6368395,27.9924938 C33.1211852,27.1881481 32.9544691,26.1965432 32.2639012,25.7817284 L32.2631111,25.7809383 Z" id="Path" fill="#D8A25C" fill-rule="nonzero"></path>
                    <path d="M16.2797037,19.5595062 C16.8962708,18.972992 17.86656,18.9800452 18.4745354,19.5754609 C19.0825108,20.1708766 19.109814,21.1408072 18.5362963,21.7694815 L18.4533333,21.8540247 L18.1175309,22.1724444 C17.5007418,22.7586342 16.5305421,22.7511887 15.9228221,22.1556019 C15.3151022,21.560015 15.2880949,20.5901628 15.8617284,19.961679 L15.9439012,19.8779259 L16.2797037,19.5595062 L16.2797037,19.5595062 Z M20.0288395,21.010963 C20.6283313,20.4069485 21.5984802,20.386155 22.2233016,20.9639285 C22.848123,21.541702 22.9031853,22.5105102 22.3478519,23.155358 L22.2672593,23.2422716 L21.1002469,24.4132346 C20.5001009,25.0126933 19.5337269,25.0314011 18.9108296,24.455619 C18.2879323,23.879837 18.2307311,22.914976 18.7812346,22.2696296 L18.861037,22.182716 L20.0288395,21.010963 L20.0288395,21.010963 Z M23.5243457,22.7002469 C24.0819644,22.0618901 25.0439099,21.9771562 25.7045367,22.5082026 C26.3651635,23.039249 26.4891658,23.9969245 25.9855802,24.678716 L25.9120988,24.7703704 L24.6297284,26.2486914 C24.0721096,26.8870481 23.1101642,26.971782 22.4495373,26.4407357 C21.7889105,25.9096893 21.6649083,24.9520137 22.1684938,24.2702222 L22.2419753,24.1777778 L23.5243457,22.7002469 L23.5243457,22.7002469 Z M28.5297778,25.4411852 C29.0903415,26.0487395 29.0879303,26.9856599 28.5242469,27.590321 L28.4404938,27.6740741 L27.8605432,28.2097778 C27.2369469,28.7921762 26.2636272,28.7743509 25.6617739,28.1695097 C25.0599206,27.5646685 25.0469156,26.5912724 25.6323951,25.9705679 L25.7161481,25.8876049 L26.2968889,25.3519012 C26.9381587,24.760014 27.937814,24.799986 28.5297778,25.4411852 Z" id="Shape" fill="#654A28" fill-rule="nonzero"></path>
                    <path d="M37.1832099,6.6797037 C39.1261235,6.84641975 42.1854815,7.50617284 42.5173333,8.13037037 L45.1832099,6.89540741 L50.4375309,16.7774815 L48.6020741,17.7540741 C48.2259753,17.9531852 48.1619753,18.6263704 48.1540741,18.9534815 C48.2615309,19.6116543 48.0086914,20.2532346 47.4642963,20.5424198 L46.3794568,21.1231605 L31.7795556,12.2026667 C31.7084444,12.0730864 31.5109136,11.8455309 30.9807407,11.7941728 C30.226963,11.7222716 27.0245926,13.0164938 27.0245926,13.0164938 L26.8318025,13.0212346 C26.0464198,13.0291358 23.1324444,12.9627654 22.9878519,11.5302716 C22.8219259,9.87733333 25.1828148,9.41985185 25.1828148,9.41985185 L26.0005926,8.97185185 C27.1597037,8.35160494 29.273284,7.27308642 30.4845432,6.97283951 C32.6731852,6.43081481 35.238716,6.51614815 37.1832099,6.6797037 L37.1832099,6.6797037 Z" id="Path" fill="#654A28" fill-rule="nonzero"></path>
                    <polygon id="Path" fill="#66A4DC" fill-rule="nonzero" points="56.5349136 0 63.8127407 13.1302716 53.446321 18.8760494 46.169284 5.74577778"></polygon>
                    <polygon id="Path" fill="#3385D1" fill-rule="nonzero" points="47.5512099 4.98014815 54.829037 18.1096296 50.6824691 20.4088889 43.404642 7.27703704"></polygon>
                    <path d="M50.5323457,16.877037 C50.3807933,16.6292772 50.377385,16.318345 50.5234699,16.0673226 C50.6695548,15.8163002 50.94158,15.6656592 51.2318647,15.6750307 C51.5221494,15.6844022 51.7838918,15.8522753 51.9134815,16.1121975 C52.1022608,16.4908385 51.9592753,16.9509886 51.5891472,17.1559566 C51.2190192,17.3609245 50.7531192,17.2379604 50.5323457,16.877037 L50.5323457,16.877037 Z" id="Path" fill="#2F3137" fill-rule="nonzero"></path>
                    <polygon id="Path" fill="#99BDCD" fill-rule="nonzero" points="7.27782716 0 0 13.1302716 10.3664198 18.8760494 17.6434568 5.74577778"></polygon>
                    <polygon id="Path" fill="#005B82" fill-rule="nonzero" points="16.2615309 4.98014815 8.98449383 18.1096296 13.1302716 20.4088889 20.4080988 7.27703704"></polygon>
                    <path d="M13.2803951,16.877037 C13.4319474,16.6292772 13.4353558,16.318345 13.2892709,16.0673226 C13.143186,15.8163002 12.8711607,15.6656592 12.580876,15.6750307 C12.2905913,15.6844022 12.0288489,15.8522753 11.8992593,16.1121975 C11.7104799,16.4908385 11.8534655,16.9509886 12.2235935,17.1559566 C12.5937216,17.3609245 13.0596216,17.2379604 13.2803951,16.877037 Z" id="Path" fill="#2F3137" fill-rule="nonzero"></path>
                </g>
            </g>
        </g>
    </g>
</svg>