<svg width="100" height="100" viewBox="0 0 100 100" xmlns="http://www.w3.org/2000/svg" xmlns:xlink="http://www.w3.org/1999/xlink">
  <title>
    Liste med oppgaver
  </title>
  <defs>
    <circle id="a" cx="50" cy="50" r="50"/>
    <path d="M0 8.3V46c0 1.3 1 2.4 2.4 2.4h31.9c1.3 0 2.3-1 2.3-2.4V2.4c0-1.3-1-2.4-2.3-2.4H8.8L0 8.3z" id="c"/>
  </defs>
  <g fill="none" fill-rule="evenodd">
    <g>
      <mask id="b" fill="#fff">
        <use xlink:href="#a"/>
      </mask>
      <g mask="url(#b)" fill="#99BDCD">
        <path d="M0 100h100V0H0z"/>
      </g>
    </g>
    <path d="M70 24.1H30a3 3 0 00-3 3V78a3 3 0 001 2.3 3 3 0 002 .7h40a3 3 0 003-3V27a3 3 0 00-3-3" fill="#515658"/>
    <g transform="translate(31.3 28.3)">
      <mask id="d" fill="#fff">
        <use xlink:href="#c"/>
      </mask>
      <g mask="url(#d)" fill="#FFF">
        <path d="M-5.4-7h46.8v61.7H-5.4z"/>
      </g>
    </g>
    <path d="M40 28.3v5.8c0 1.4-1 2.5-2.5 2.5h-6.2l8.8-8.3z" fill="#C9C9C9"/>
    <path fill="#A59D96" d="M44.1 47h15.6v-1.4H44.1zM44.1 51.9h15.6v-1.4H44.1zM44.1 56h15.6v-1.4H44.1zM44.1 60.8h15.6v-1.3H44.1zM42.8 44.3H39.4V47.7H42.8V44.3zM40 47h2v-2h-2v2zM42.8 49H39.4V52.4H42.8V49zM40 51.7h2v-2h-2v2zM42.8 53.7H39.4v3.5H42.8v-3.5zM40 56.4h2v-2h-2v2zM42.8 58.4H39.4V62H42.8v-3.5zM40 61.1h2v-2h-2v2z"/>
    <path fill="#2F3237" fill-rule="nonzero" d="M40.4 45.5l1.6-2.6.8.8-2.3 4-1.8-2.7.8-1zM41.8 47l1 .8-2.3 4-1.8-2.8 1-.8.8 1.2z"/>
    <path d="M50.4 26a1 1 0 01-1-1c0-.5.5-.9 1-.9s1 .4 1 1c0 .5-.5 1-1 1m5.8-4h-3.5v-.7c0-1.3-1-2.4-2.3-2.4-1.3 0-2.3 1-2.3 2.4v.7h-3.5a3.2 3.2 0 00-3.1 3.2v3.9h17.9v-3.9c0-1.8-1.4-3.2-3.2-3.2" fill="#2F3237"/>
  </g>
</svg>