<svg width="202" height="120" viewBox="0 0 202 120" xmlns="http://www.w3.org/2000/svg">
  <title>
    Kontor
  </title>
  <g fill="none" fill-rule="evenodd">
    <path d="M202 86v13.2a5 5 0 01-5 5H53a5 5 0 01-5-5V86.1h154z" fill="#ABB2BA"/>
    <path d="M48 86.5V5a5 5 0 015-5h144a5 5 0 015 5v81.5H48z" fill="#506572"/>
    <path d="M53.6 81V8c0-1.3 1.1-2.4 2.5-2.4H194c1.4 0 2.5 1.1 2.5 2.5v72.8H53.6z" fill="#627282"/>
    <path fill="#ABB2BA" d="M106.8 117.2h36.4v-14h-36.4z"/>
    <path fill="#ABB2BA" d="M92.8 120h64.4v-4.2H92.8z"/>
    <path fill="#E6E6E6" d="M73 15h104v66H73z"/>
    <g fill="#8F9395">
      <path d="M97.3 43h56.4v-3H97.3zM97.3 50h56.4v-3H97.3zM97.3 57h56.4v-3H97.3zM97.3 64h56.4v-3H97.3zM97.3 71h56.4v-3H97.3zM97.3 36h56.4v-3H97.3z"/>
    </g>
    <g>
      <path d="M7.3 114.6l1.5-.2c1-.1 1.8.5 1.9 1.4.1 1-.5 1.8-1.4 2l-1.6.2c-.9 0-1.7-.6-1.8-1.5-.2-1 .5-1.8 1.4-1.9" fill="#C3242A"/>
      <path fill="#E8D7BD" d="M6 82l-3.2-5L1 82.6l.2 1.4 4.8-.6z"/>
      <path fill="#5D5C5A" d="M2.8 77l-.6 1.8 1.6-.2z"/>
      <path d="M5.4 81.8c-.3 0-.5.3-1 .4v.3L9 115.2l1.6-.2L6 82.3V82s-.3-.3-.6-.2M2.5 82.4c-.4 0-.6-.2-.9-.1-.3 0-.5.3-.5.3v.4l4.7 32.7 1.6-.2-4.6-32.8v-.3h-.3" fill="#EDC55C"/>
      <path d="M3.5 82c-.4 0-.5.3-.8.4v.4l4.7 32.7 1.6-.3-4.6-32.6v-.4l-1-.2" fill="#D8A25D"/>
      <path fill="#5D5C5A" fill-rule="nonzero" d="M5.8 115.7l4.8-.7.1 1-4.8.7z"/>
      <g>
        <path d="M17 106.8l1.5.2c1 0 1.6.9 1.5 1.8-.1 1-1 1.6-1.8 1.5l-1.6-.1c-1-.1-1.6-1-1.5-1.9.1-1 1-1.6 1.8-1.5" fill="#C3242A"/>
        <path fill="#E8D7BD" d="M23.6 74.8l-2-5.5-2.9 5-.1 1.4 4.8.5z"/>
        <path fill="#5D5C5A" d="M21.7 69.3l-1 1.5 1.6.2z"/>
        <g>
          <path d="M23 74.5l-.9.2H22v.3l-3.5 32.8 1.7.2L23.5 75v-.3s-.1-.3-.5-.3M20.2 74.5c-.5 0-.6-.4-1-.4l-.5.2v.3l-3.5 32.9 1.6.2 3.5-33v-.3h-.1" fill="#50808B"/>
          <path d="M21.2 74.3c-.5 0-.6.1-.9.2v.3l-3.5 32.9 1.6.1L22 75v-.3c-.2-.1-.3-.4-.7-.4" fill="#0C576F"/>
        </g>
        <path fill="#5D5C5A" fill-rule="nonzero" d="M15.2 107.5l4.9.5-.1 1-4.9-.5z"/>
      </g>
      <g>
        <path d="M11.2 116h1.6c.9 0 1.6.8 1.5 1.7 0 1-.8 1.7-1.7 1.7H11c-.9-.1-1.6-.9-1.5-1.8 0-1 .8-1.7 1.7-1.6" fill="#C3242A"/>
        <path fill="#E8D7BD" d="M15.5 83.5l-2.2-5.3-2.6 5.2v1.4l4.8.2z"/>
        <path fill="#5D5C5A" d="M13.3 78.2l-.9 1.6H14z"/>
        <g>
          <path d="M15 83.3l-1 .2H14v.3l-1.2 33 1.7.1 1.1-33v-.3s-.2-.3-.5-.3M12.1 83.5c-.4 0-.6-.3-.9-.4-.3 0-.5.3-.5.3v.3l-1.2 33 1.6.1 1.2-33v-.4H12" fill="#97AB48"/>
          <path d="M13.1 83.2c-.4 0-.5.2-.8.3v.3l-1.2 33h1.6l1.2-33v-.3c-.3 0-.4-.3-.8-.3" fill="#727D31"/>
        </g>
        <path fill="#5D5C5A" fill-rule="nonzero" d="M9.5 116.8l4.9.1v1l-5-.1z"/>
      </g>
      <path fill="#78706A" d="M22.6 97.6H.4L3 120h16.8z"/>
    </g>
  </g>
</svg>